HIERARCHY
ROOT Hips
{
	OFFSET 0.00000 0.00000 0.00000
	CHANNELS 6 Xposition Yposition Zposition Zrotation Yrotation Xrotation 
	JOINT LHipJoint
	{
		OFFSET 0 0 0
		CHANNELS 3 Zrotation Yrotation Xrotation
		JOINT LeftUpLeg
		{
			OFFSET 1.62964 -1.40469 0.78906
			CHANNELS 3 Zrotation Yrotation Xrotation
			JOINT LeftLeg
			{
				OFFSET 2.29640 -6.30932 0.00000
				CHANNELS 3 Zrotation Yrotation Xrotation
				JOINT LeftFoot
				{
					OFFSET 2.29451 -6.30412 0.00000
					CHANNELS 3 Zrotation Yrotation Xrotation
					JOINT LeftToeBase
					{
						OFFSET 0.03611 -0.09921 1.56387
						CHANNELS 3 Zrotation Yrotation Xrotation
						End Site
						{
							OFFSET 0.00000 -0.00000 0.80291
						}
					}
				}
			}
		}
	}
	JOINT RHipJoint
	{
		OFFSET 0 0 0
		CHANNELS 3 Zrotation Yrotation Xrotation
		JOINT RightUpLeg
		{
			OFFSET -1.73712 -1.40469 0.78906
			CHANNELS 3 Zrotation Yrotation Xrotation
			JOINT RightLeg
			{
				OFFSET -2.28137 -6.26801 0.00000
				CHANNELS 3 Zrotation Yrotation Xrotation
				JOINT RightFoot
				{
					OFFSET -2.28681 -6.28298 0.00000
					CHANNELS 3 Zrotation Yrotation Xrotation
					JOINT RightToeBase
					{
						OFFSET -0.15927 -0.43759 1.61103
						CHANNELS 3 Zrotation Yrotation Xrotation
						End Site
						{
							OFFSET -0.00000 -0.00000 0.84630
						}
					}
				}
			}
		}
	}
	JOINT LowerBack
	{
		OFFSET 0 0 0
		CHANNELS 3 Zrotation Yrotation Xrotation
		JOINT Spine
		{
			OFFSET -0.04227 2.04338 -0.00225
			CHANNELS 3 Zrotation Yrotation Xrotation
			JOINT Spine1
			{
				OFFSET -0.02148 2.04482 -0.04273
				CHANNELS 3 Zrotation Yrotation Xrotation
				JOINT Neck
				{
					OFFSET 0 0 0
					CHANNELS 3 Zrotation Yrotation Xrotation
					JOINT Neck1
					{
						OFFSET 0.09180 1.44629 0.19359
						CHANNELS 3 Zrotation Yrotation Xrotation
						JOINT Head
						{
							OFFSET 0.00887 1.40645 0.14750
							CHANNELS 3 Zrotation Yrotation Xrotation
							End Site
							{
								OFFSET -0.00669 1.50671 0.03707
							}
						}
					}
				}
				JOINT LeftShoulder
				{
					OFFSET 0 0 0
					CHANNELS 3 Zrotation Yrotation Xrotation
					JOINT LeftArm
					{
						OFFSET 2.17674 1.86763 -0.06520
						CHANNELS 3 Zrotation Yrotation Xrotation
						JOINT LeftForeArm
						{
							OFFSET 4.65776 -0.00000 0.00000
							CHANNELS 3 Zrotation Yrotation Xrotation
							JOINT LeftHand
							{
								OFFSET 3.55539 -0.00000 0.00000
								CHANNELS 3 Zrotation Yrotation Xrotation
								JOINT LeftFingerBase
								{
									OFFSET 0 0 0
									CHANNELS 3 Zrotation Yrotation Xrotation
									JOINT LeftHandIndex1
									{
										OFFSET 0.70726 -0.00000 0.00000
										CHANNELS 3 Zrotation Yrotation Xrotation
										End Site
										{
											OFFSET 0.57022 -0.00000 0.00000
										}
									}
								}
								JOINT LThumb
								{
									OFFSET 0 0 0
									CHANNELS 3 Zrotation Yrotation Xrotation
									End Site
									{
										OFFSET 0.57892 -0.00000 0.57892
									}
								}
							}
						}
					}
				}
				JOINT RightShoulder
				{
					OFFSET 0 0 0
					CHANNELS 3 Zrotation Yrotation Xrotation
					JOINT RightArm
					{
						OFFSET -2.80694 1.55459 -0.32496
						CHANNELS 3 Zrotation Yrotation Xrotation
						JOINT RightForeArm
						{
							OFFSET -4.71925 -0.00000 -0.00000
							CHANNELS 3 Zrotation Yrotation Xrotation
							JOINT RightHand
							{
								OFFSET -3.56990 -0.00000 0.00000
								CHANNELS 3 Zrotation Yrotation Xrotation
								JOINT RightFingerBase
								{
									OFFSET 0 0 0
									CHANNELS 3 Zrotation Yrotation Xrotation
									JOINT RightHandIndex1
									{
										OFFSET -0.50776 -0.00000 0.00000
										CHANNELS 3 Zrotation Yrotation Xrotation
										End Site
										{
											OFFSET -0.40937 -0.00000 0.00000
										}
									}
								}
								JOINT RThumb
								{
									OFFSET 0 0 0
									CHANNELS 3 Zrotation Yrotation Xrotation
									End Site
									{
										OFFSET -0.41562 -0.00000 0.41562
									}
								}
							}
						}
					}
				}
			}
		}
	}
}
MOTION
Frames: 8
Frame Time: .0083333
8.8968 16.3637 31.2031 0 0 0 0 0 0 -21 0 0 0 0 0 0 0 0 0 0 0 0 0 0 21 0 0 0 0 0 0 0 0 0 0 0 0 0 0 0 0 0 0 0 0 0 0 -16 0 0 21 0 0 11 0 0 0 -8 0 0 0 0 0 0 0 0 0 0 0 0 0 0 0 0 0 0 0 0 8 0 0 0 0 0 0 0 0 0 0 0 0 0 0 0 0 0
8.8968 16.3637 31.2031 179.6270 -1.0145 -155.7550 0.0000 0.0000 0.0000 -17.5648 -15.3109 -18.2491 0.1646 2.6138 7.2053 0.2162 1.0332 -9.2220 5.3831 -13.8027 -42.4527 0.0000 0.0000 0.0000 17.8094 12.9374 -18.9792 -0.1610 -2.5853 7.1261 -1.8797 4.0378 -24.9624 -0.2909 3.4683 -9.5853 -4.7342 -0.7473 -24.3986 -0.5821 -0.3816 -3.0672 1.8910 -0.6598 10.2175 -2.5752 -3.0964 -0.9652 5.9883 -4.6396 -14.5322 2.6876 -2.8708 -4.4346 0.0000 -0.0000 0.0000 -86.6964 -1.5745 14.6944 7.5755 -12.8624 -0.8551 -0.0000 -0.0000 14.9907 21.8943 -9.9604 -3.9764 -7.1250 0.0000 -0.0000 -3.6279 19.2740 2.2315 0.0000 -0.0000 0.0000 92.2075 -2.5925 4.7119 -12.0025 19.8084 -2.1031 0.0000 0.0000 7.0226 -12.8267 -55.1498 10.5836 7.1250 -0.0000 -0.0000 75.1905 -76.5138 -61.4089
8.9056 16.3592 31.1638 180.3070 -1.8979 -156.8830 0.0000 0.0000 0.0000 -16.5669 -15.1916 -16.9814 0.1593 2.5719 7.0890 0.2153 0.9210 -9.1491 5.2364 -13.6452 -41.8343 0.0000 0.0000 0.0000 18.9602 14.4379 -16.5423 -0.1335 -2.3551 6.4881 -1.9345 1.3784 -25.9265 -0.3681 3.8973 -10.7880 -4.0281 -0.8842 -23.7135 -0.3165 -0.6989 -2.6803 1.6886 -0.7498 10.3130 -2.6639 -3.0524 -0.9466 6.0645 -4.5636 -14.4423 2.7248 -2.8269 -4.4061 0.0000 -0.0000 0.0000 -86.6527 -1.9166 11.4150 6.8529 -11.6769 -0.7016 -0.0000 -0.0000 17.8780 21.6729 -12.0605 -4.7467 -7.1250 0.0000 -0.0000 -3.8503 17.0500 2.5580 0.0000 -0.0000 0.0000 92.2270 -2.7496 3.7314 -11.6822 19.3264 -1.9959 0.0000 0.0000 7.3663 -14.5478 -54.4365 11.9202 7.1250 -0.0000 -0.0000 71.8601 -77.0534 -58.8331
8.8991 16.3530 31.1496 180.3930 -1.6191 -156.7080 0.0000 0.0000 0.0000 -16.4957 -15.2909 -16.9645 0.1518 2.5104 6.9186 0.2134 1.2959 -9.2979 5.2685 -13.6799 -41.9700 0.0000 0.0000 0.0000 18.9096 14.8683 -16.6913 -0.1411 -2.4210 6.6706 -1.9523 1.3610 -26.0532 -0.3438 3.7674 -10.4232 -3.8994 -0.7653 -24.0963 -0.3432 -0.5665 -2.6657 1.6229 -0.6901 10.5253 -2.6895 -3.0456 -0.9467 6.0939 -4.5522 -14.4405 2.7393 -2.8215 -4.4050 -0.0000 0.0000 0.0000 -86.6164 -2.0198 8.0359 6.3947 -10.9188 -0.6118 -0.0000 -0.0000 21.1223 21.9968 -13.6640 -5.4510 -7.1250 0.0000 -0.0000 -3.6949 15.3088 2.5937 -0.0000 0.0000 0.0000 92.2531 -2.7939 2.5455 -11.3333 18.7973 -1.8819 0.0000 0.0000 8.0543 -16.2716 -53.6335 13.2265 7.1250 -0.0000 -0.0000 67.9347 -77.5566 -55.6973
8.8964 16.3506 31.1944 179.7350 -0.8709 -154.9640 0.0000 0.0000 0.0000 -17.1715 -15.4184 -19.2637 0.1737 2.6847 7.4021 0.2222 1.0415 -9.3457 5.3767 -13.7959 -42.4258 0.0000 0.0000 0.0000 17.5398 14.6641 -19.6219 -0.1843 -2.7650 7.6253 -1.9449 2.7811 -25.6543 -0.3411 3.7532 -10.3834 -4.6644 -0.7014 -25.2340 -0.5963 -0.3548 -3.2210 1.8350 -0.6721 10.4822 -2.6607 -3.1066 -1.1191 6.1665 -4.6330 -14.3744 2.7522 -2.8671 -4.3419 0.0000 -0.0000 0.0000 -86.5245 -1.8839 5.3093 6.1669 -10.5403 -0.5694 -0.0000 -0.0000 23.5591 22.2959 -15.2363 -6.1505 -7.1250 0.0000 -0.0000 -3.5759 13.5994 2.6401 0.0000 -0.0000 0.0000 92.3228 -2.8129 1.0338 -10.9490 18.2101 -1.7600 0.0000 0.0000 8.9740 -17.7580 -52.4326 14.2435 7.1250 -0.0000 -0.0000 62.0648 -77.8129 -50.5775
8.8920 16.3487 31.1712 179.6160 -1.0616 -155.0940 0.0000 0.0000 0.0000 -17.3583 -15.2450 -19.0713 0.1722 2.6733 7.3706 0.2280 0.6881 -9.2960 5.4063 -13.8272 -42.5496 0.0000 0.0000 0.0000 17.4261 14.8024 -19.1816 -0.1780 -2.7179 7.4944 -1.9676 2.4712 -25.8783 -0.3466 3.7830 -10.4670 -4.7041 -0.7927 -25.3473 -0.6290 -0.4390 -3.1296 1.7911 -0.7122 10.6520 -2.6898 -3.0123 -1.0634 6.0982 -4.4995 -14.3039 2.7294 -2.7902 -4.3348 0.0000 0.0000 0.0000 -86.2514 -1.3539 5.7415 6.2168 -10.6233 -0.5786 -0.0000 -0.0000 22.6260 22.1389 -16.1847 -6.4699 -7.1250 0.0000 -0.0000 -3.7393 12.6097 2.8390 0.0000 0.0000 0.0000 92.3635 -2.8084 -0.2775 -10.5579 17.6075 -1.6397 0.0000 0.0000 9.4831 -19.2054 -51.3260 15.2139 7.1250 -0.0000 -0.0000 56.4545 -77.9964 -45.7318
8.8798 16.3378 31.1551 179.7750 -0.7011 -154.7610 0.0000 0.0000 0.0000 -17.1838 -15.3636 -19.2510 0.1660 2.6246 7.2354 0.2221 1.1289 -9.3876 5.2785 -13.6908 -42.0126 0.0000 0.0000 0.0000 17.3459 15.1690 -19.6641 -0.1943 -2.8388 7.8303 -1.2140 0.5663 -20.6572 -2.0737 9.0180 -25.8517 -4.4232 -0.5814 -25.9809 -0.7050 -0.2184 -3.1107 1.6127 -0.6120 10.9935 -2.9212 -2.8932 -1.3924 6.2968 -4.3004 -13.8937 2.8066 -2.6720 -4.1248 0.0000 -0.0000 0.0000 -85.6086 -0.1164 11.3528 6.8771 -11.7167 -0.7065 -0.0000 -0.0000 16.7212 21.5872 -15.0524 -5.8669 -7.1250 0.0000 -0.0000 -4.0442 13.8780 2.9636 0.0000 -0.0000 0.0000 92.4211 -2.6373 -1.5909 -10.1429 16.9627 -1.5164 0.0000 0.0000 10.1062 -22.0147 -49.8157 17.1655 7.1250 -0.0000 -0.0000 47.9652 -78.4580 -38.7394
8.8762 16.3382 31.1438 179.8160 -0.5827 -154.8320 0.0000 0.0000 0.0000 -17.1889 -15.4391 -18.9388 0.1558 2.5433 7.0099 0.2145 1.3959 -9.3732 5.2011 -13.6068 -41.6845 0.0000 0.0000 0.0000 17.3420 15.4492 -19.5038 -0.1981 -2.8662 7.9066 -1.2282 0.4320 -20.8211 -2.0969 9.0651 -25.9993 -4.4288 -0.4944 -25.9617 -0.7590 -0.0895 -3.0696 1.5999 -0.5494 11.0226 -2.7439 -2.8370 -1.7135 6.1818 -4.2164 -13.5596 2.7081 -2.6201 -3.9515 0.0000 -0.0000 0.0000 -85.3676 -0.1878 9.1578 6.4054 -10.9365 -0.6138 -0.0000 -0.0000 18.9836 21.1101 -13.2608 -5.0608 -7.1250 0.0000 -0.0000 -4.2862 15.8289 2.9630 0.0000 -0.0000 0.0000 92.5266 -2.5617 -3.1891 -9.7745 16.3860 -1.4107 0.0000 0.0000 10.9540 -22.6250 -49.3320 17.5428 7.1250 -0.0000 -0.0000 45.3978 -78.4521 -36.5324
